<?xml version="1.0" standalone="no"?>
<!DOCTYPE svg PUBLIC "-//W3C//DTD SVG 20010904//EN"
 "http://www.w3.org/TR/2001/REC-SVG-20010904/DTD/svg10.dtd">
<svg version="1.0" xmlns="http://www.w3.org/2000/svg"
 width="700.000000pt" height="700.000000pt" viewBox="0 0 700.000000 700.000000"
 preserveAspectRatio="xMidYMid meet">
<metadata>
Created by potrace 1.11, written by Peter Selinger 2001-2013
</metadata>
<g transform="translate(0.000000,700.000000) scale(0.100000,-0.100000)"
fill="#000000" stroke="none">
<path d="M2739 6995 c-2 -2 -24 -6 -49 -10 -118 -18 -265 -99 -365 -201 -286
-294 -251 -783 73 -1034 137 -106 275 -151 447 -145 61 2 119 5 130 8 169 42
335 152 425 282 200 291 160 679 -95 918 -43 41 -152 110 -213 136 -72 30
-173 48 -270 49 -44 0 -81 -1 -83 -3z m201 -214 c42 -9 101 -33 160 -66 48
-27 129 -118 165 -186 172 -327 -62 -719 -430 -722 -283 -2 -513 234 -499 513
16 310 296 524 604 461z"/>
<path d="M2220 5330 c-25 -5 -60 -11 -79 -14 -65 -13 -191 -68 -268 -118 -172
-111 -489 -478 -634 -735 -185 -326 -314 -702 -354 -1033 -4 -30 -9 -66 -11
-80 -12 -90 -15 -334 -4 -382 51 -221 265 -361 478 -312 84 19 133 45 197 107
90 87 121 176 124 359 1 56 4 104 5 107 2 3 6 36 10 72 3 37 13 100 22 140 8
41 17 83 20 94 11 53 45 160 82 255 37 93 148 309 173 335 7 7 17 -3745 10
-3802 -4 -27 43 -141 72 -178 49 -62 83 -88 156 -117 63 -25 75 -27 237 -27
120 0 185 4 219 14 49 15 135 64 135 78 0 14 26 7 48 -14 13 -11 48 -32 80
-47 56 -26 61 -27 257 -27 199 0 200 0 262 29 76 35 144 104 181 184 l27 57 2
304 c1 167 4 305 5 306 2 2 32 -24 68 -57 179 -167 535 -378 636 -378 74 0
122 96 79 157 -8 12 -72 49 -142 83 -480 234 -811 628 -962 1145 -11 39 -23
85 -26 104 -3 19 -7 37 -9 40 -2 3 -7 35 -11 71 -3 36 -9 74 -12 85 -7 21 -12
1285 -6 1297 2 4 34 -8 71 -26 145 -70 245 -96 392 -101 103 -4 142 0 245 20
61 12 196 74 279 128 98 64 234 190 292 271 21 30 41 55 44 55 3 0 23 -24 44
-54 89 -123 246 -258 381 -325 140 -69 225 -91 365 -95 175 -6 317 27 483 111
26 13 48 23 48 22 1 -2 2 -237 3 -524 1 -585 -2 -562 75 -585 50 -15 90 -1
114 41 16 26 17 78 17 580 -1 519 -2 554 -19 589 -24 46 -56 76 -103 96 -63
26 -110 19 -211 -29 -153 -73 -253 -98 -382 -98 -124 1 -250 40 -369 116 -74
48 -198 166 -253 243 -55 77 -94 110 -138 119 -42 8 -48 14 -76 89 -31 87
-129 287 -189 391 -122 207 -301 435 -471 599 -143 138 -240 198 -404 248 -68
20 -89 21 -665 23 -327 1 -615 -1 -640 -6z m278 -335 c64 -77 128 -150 142
-163 97 -88 244 -98 347 -23 22 16 97 97 167 179 l125 149 63 -4 c184 -10 317
-81 488 -260 257 -268 432 -535 561 -858 l47 -119 -43 -56 c-24 -31 -71 -82
-106 -114 -61 -57 -166 -133 -173 -125 -2 2 -21 60 -43 129 -69 213 -169 410
-306 602 -132 184 -178 219 -246 182 -61 -33 -61 -30 -61 -454 1 -212 1 -406
0 -432 l0 -47 -66 34 c-125 65 -237 36 -296 -78 -19 -37 -19 -62 -19 -675 0
-578 2 -704 16 -797 3 -16 7 -48 10 -70 9 -60 53 -242 75 -305 63 -186 148
-358 248 -502 l33 -47 0 -409 c1 -437 1 -440 -49 -485 -38 -34 -85 -43 -228
-41 -155 1 -185 10 -226 66 l-23 33 -5 1101 c-4 934 -7 1104 -19 1118 -23 28
-66 46 -97 40 -32 -5 -84 -55 -85 -82 0 -9 -2 -501 -2 -1092 l-2 -1075 -22
-35 c-41 -66 -67 -74 -245 -74 l-157 0 -38 30 c-74 60 -68 -135 -67 2165 l0
2072 -20 30 c-23 34 -66 50 -107 41 -33 -6 -90 -68 -182 -194 -59 -82 -197
-303 -197 -316 0 -3 -15 -37 -34 -77 -53 -114 -122 -319 -142 -422 -35 -179
-42 -239 -50 -404 -3 -64 -10 -131 -15 -149 -33 -103 -156 -159 -257 -117 -85
36 -125 105 -126 215 0 79 13 290 18 299 2 3 7 33 11 66 3 32 8 62 10 65 1 3
6 25 9 50 3 25 15 79 27 120 11 41 22 82 24 91 7 37 68 208 102 288 92 217
251 480 383 635 208 245 312 336 450 392 67 27 93 33 175 41 33 3 62 7 63 9
19 16 57 -18 160 -141z m494 126 c-3 -15 -30 -47 -99 -118 -36 -39 -45 -43
-74 -38 -18 3 -34 7 -34 8 0 1 -25 31 -55 67 -31 36 -61 72 -67 80 -10 14 8
15 160 15 138 -1 171 -4 169 -14z m778 -1191 c49 -99 85 -189 119 -300 35
-117 35 -109 4 -116 -33 -9 -211 -10 -219 -2 -4 4 -7 471 -4 588 0 18 36 -42
100 -170z"/>
<path d="M5326 2739 c-15 -12 -50 -45 -78 -73 -28 -28 -219 -223 -424 -432
l-374 -381 -69 71 c-38 39 -111 115 -162 169 -87 92 -97 99 -140 104 -41 5
-48 2 -77 -27 -32 -32 -40 -71 -24 -112 6 -14 95 -110 357 -383 109 -113 116
-111 338 113 97 97 235 238 307 312 73 74 215 219 316 321 101 103 185 195
185 205 5 65 -15 108 -57 124 -39 15 -69 12 -98 -11z"/>
<path d="M5963 2039 c-42 -16 -52 -37 -99 -214 -76 -281 -237 -557 -453 -774
-156 -157 -305 -263 -508 -362 -67 -33 -129 -69 -138 -81 -43 -63 5 -158 80
-158 46 0 224 83 356 167 380 238 677 611 824 1035 46 131 75 247 75 295 -1
73 -67 118 -137 92z"/>
</g>
</svg>
